<mxfile host="app.diagrams.net" agent="Mozilla/5.0 (Windows NT 10.0; Win64; x64) AppleWebKit/537.36 (KHTML, like Gecko) Chrome/132.0.0.0 Safari/537.36" version="26.0.10">
  <diagram name="Page-1" id="QGjMv8LrLS21k3CkNhZE">
    <mxGraphModel dx="1434" dy="762" grid="1" gridSize="10" guides="1" tooltips="1" connect="1" arrows="1" fold="1" page="1" pageScale="1" pageWidth="827" pageHeight="1169" math="0" shadow="0">
      <root>
        <mxCell id="0" />
        <mxCell id="1" parent="0" />
        <mxCell id="Xr2quWgWzoAM4Jd-oPhX-1" value="&lt;span style=&quot;color: rgb(0, 0, 0); font-family: Arial, sans-serif; font-size: 14px; font-weight: 700; background-color: rgb(219, 234, 254);&quot;&gt;Déposer la colle avec stabilité et précision&lt;/span&gt;" style="rounded=1;whiteSpace=wrap;html=1;" vertex="1" parent="1">
          <mxGeometry x="70" y="270" width="120" height="60" as="geometry" />
        </mxCell>
        <mxCell id="Xr2quWgWzoAM4Jd-oPhX-2" value="&lt;span style=&quot;color: rgb(0, 0, 0); font-family: Arial, sans-serif; font-size: 14px; font-weight: 700; background-color: rgb(219, 234, 254);&quot;&gt;Positionner la buse&lt;/span&gt;" style="rounded=1;whiteSpace=wrap;html=1;" vertex="1" parent="1">
          <mxGeometry x="250" y="270" width="130" height="60" as="geometry" />
        </mxCell>
        <mxCell id="Xr2quWgWzoAM4Jd-oPhX-3" value="Controler le debit de colle" style="rounded=1;whiteSpace=wrap;html=1;" vertex="1" parent="1">
          <mxGeometry x="250" y="350" width="130" height="60" as="geometry" />
        </mxCell>
        <mxCell id="Xr2quWgWzoAM4Jd-oPhX-5" value="&lt;span style=&quot;color: rgb(0, 0, 0); font-family: Arial, sans-serif; font-size: 14px; font-weight: 700; background-color: rgb(219, 234, 254);&quot;&gt;Ajuster le debit&lt;/span&gt;" style="rounded=1;whiteSpace=wrap;html=1;" vertex="1" parent="1">
          <mxGeometry x="414" y="270" width="130" height="60" as="geometry" />
        </mxCell>
        <mxCell id="Xr2quWgWzoAM4Jd-oPhX-6" value="&lt;span style=&quot;color: rgb(0, 0, 0); font-family: Arial, sans-serif; font-size: 14px; font-weight: 700; background-color: rgb(219, 234, 254);&quot;&gt;Déplacer en X-Y-Z&lt;/span&gt;" style="rounded=1;whiteSpace=wrap;html=1;" vertex="1" parent="1">
          <mxGeometry x="414" y="350" width="130" height="60" as="geometry" />
        </mxCell>
      </root>
    </mxGraphModel>
  </diagram>
</mxfile>
